# xmcd
#
# Track frame offsets: 
#        150
#        16952
#        35627
#        49225
#        71890
#        86552
#        104457
#        119637
#        142392
#        159492
#        175945
#
# Disc length: 2529 seconds
#
# Revision: 3
# Processed by: cddbd v1.5.1PL0 Copyright (c) Steve Scherf et al.
# Submitted via: ExactAudioCopy v0.95b3
#
DISCID=a409df0b
DTITLE=Kenny Wayne Shepherd - The Place You're In
DYEAR=2004
DGENRE=Blues
TTITLE0=Alive
TTITLE1=Be Mine
TTITLE2=Spank
TTITLE3=Let Go
TTITLE4=Ain't Selling Out
TTITLE5=Believe
TTITLE6=The Place You're In
TTITLE7=Hey, What Do You Say
TTITLE8=Get It Together
TTITLE9=Burdens
TTITLE10=A Little Bit More
EXTD=
EXTT0=
EXTT1=
EXTT2=
EXTT3=
EXTT4=
EXTT5=
EXTT6=
EXTT7=
EXTT8=
EXTT9=
EXTT10=
PLAYORDER=
